<?xml version="1.0" standalone="no"?><!DOCTYPE svg PUBLIC "-//W3C//DTD SVG 1.1//EN" "http://www.w3.org/Graphics/SVG/1.1/DTD/svg11.dtd"><svg t="1519894415155" class="icon" style="" viewBox="0 0 1024 1024" version="1.1" xmlns="http://www.w3.org/2000/svg" p-id="1376" xmlns:xlink="http://www.w3.org/1999/xlink" width="16" height="16"><defs><style type="text/css"></style></defs><path d="M789.320073 597.329411h106.661252v106.661251H789.320073zM490.667136 597.329411H597.328387v106.661251H490.667136zM639.994116 597.329411h106.661252v106.661251H639.994116z" p-id="1377" fill="#808080"></path><path d="M802.101167 164.456562a42.665729 42.665729 0 0 0-32.569789-15.106046H254.467599a42.662659 42.662659 0 0 0-32.56979 15.106046L0.024559 426.670589v405.314189c0 23.562649 19.102057 42.664705 42.664706 42.664706h938.62147c23.562649 0 42.664705-19.102057 42.664706-42.664706V426.670589L802.101167 164.456562z m-537.73922 48.890501h495.276106L940.142104 426.670589H83.857896l180.504051-213.323526zM959.977871 810.651914H64.021106V490.667136H959.977871v319.984778z" p-id="1378" fill="#808080"></path></svg>