<?xml version="1.0" standalone="no"?><!DOCTYPE svg PUBLIC "-//W3C//DTD SVG 1.1//EN" "http://www.w3.org/Graphics/SVG/1.1/DTD/svg11.dtd"><svg t="1519894304196" class="icon" style="" viewBox="0 0 1024 1024" version="1.1" xmlns="http://www.w3.org/2000/svg" p-id="1374" xmlns:xlink="http://www.w3.org/1999/xlink" width="16" height="16"><defs><style type="text/css"></style></defs><path d="M789.320073 597.329411v106.661251h106.661252V597.329411H789.320073z m-298.652937 0v106.661251H597.328387V597.329411H490.667136z m149.32698 0v106.661251h106.661252V597.329411H639.994116zM1023.975441 426.670589H0.024559l221.87325-262.214027a42.665729 42.665729 0 0 1 32.56979-15.106046h515.063779a42.662659 42.662659 0 0 1 32.569789 15.106046L1023.975441 426.670589z m0 63.996547v341.316619c0 23.562649-19.102057 42.664705-42.664706 42.664705H42.689265c-23.562649 0-42.664705-19.102057-42.664706-42.664705V490.667136H1023.975441z" p-id="1375" fill="#F5F5F5"></path></svg>